<?xml version="1.0" encoding="UTF-8"?>
<!DOCTYPE svg PUBLIC "-//W3C//DTD SVG 1.1//EN" "http://www.w3.org/Graphics/SVG/1.1/DTD/svg11.dtd">
<!-- Creator: CorelDRAW 2017 -->
<svg xmlns="http://www.w3.org/2000/svg" xml:space="preserve" width="127mm" height="90.5031mm" version="1.1" style="shape-rendering:geometricPrecision; text-rendering:geometricPrecision; image-rendering:optimizeQuality; fill-rule:evenodd; clip-rule:evenodd"
viewBox="0 0 12700 9050"
 xmlns:xlink="http://www.w3.org/1999/xlink">
 <defs>
  <style type="text/css">
   <![CDATA[
    .fil1 {fill:#8F2724}
    .fil0 {fill:#AE2726}
    .fil4 {fill:#E31E24}
    .fil7 {fill:#F5DF8C}
    .fil6 {fill:#FEFEFE}
    .fil5 {fill:#FEFEFE;fill-rule:nonzero}
    .fil2 {fill:url(#id4)}
    .fil3 {fill:url(#id5)}
   ]]>
  </style>
   <mask id="id0">
  <linearGradient id="id1" gradientUnits="userSpaceOnUse" x1="5321" y1="7737" x2="5074" y2="8528">
   <stop offset="0" style="stop-opacity:1; stop-color:white"/>
   <stop offset="1" style="stop-opacity:0; stop-color:white"/>
  </linearGradient>
    <rect style="fill:url(#id1)" x="1749" y="7483" width="5698" height="1576"/>
   </mask>
   <mask id="id2">
  <linearGradient id="id3" gradientUnits="userSpaceOnUse" x1="5218" y1="822" x2="5738" y2="2537">
   <stop offset="0" style="stop-opacity:1; stop-color:white"/>
   <stop offset="1" style="stop-opacity:0; stop-color:white"/>
  </linearGradient>
    <rect style="fill:url(#id3)" x="1607" y="731" width="10477" height="6972"/>
   </mask>
  <radialGradient id="id4" gradientUnits="userSpaceOnUse" gradientTransform="matrix(0.866527 1.41653 -1.41653 0.866527 11252 -5488)" cx="4582" cy="7512" r="4417" fx="4582" fy="7512">
   <stop offset="0" style="stop-opacity:1; stop-color:#FEECA6"/>
   <stop offset="1" style="stop-opacity:1; stop-color:#E4C352"/>
  </radialGradient>
  <radialGradient id="id5" gradientUnits="userSpaceOnUse" gradientTransform="matrix(1.27878 1.05031 -1.15864 1.15922 -18 -6318)" cx="5806" cy="1381" r="4304" fx="5806" fy="1381">
   <stop offset="0" style="stop-opacity:1; stop-color:#E31E24"/>
   <stop offset="1" style="stop-opacity:1; stop-color:#AE2726"/>
  </radialGradient>
 </defs>
 <g id="red2">
  <metadata id="CorelCorpID_0Corel-Layer"/>
  <path id="redbg2" class="fil0" d="M4824 779c3104,-717 6006,495 6482,2706 476,2212 -1654,4586 -4758,5302 -3104,717 -6006,-495 -6482,-2706 -476,-2212 1654,-4586 4758,-5302z"/>
 </g>
 <g id="darkred">
  <metadata id="CorelCorpID_1Corel-Layer"/>
  <path id="darkredbg" class="fil1" d="M4824 779c3104,-717 6006,495 6482,2706 476,2212 -1654,4586 -4758,5303 -1076,248 -2127,265 -3061,89 -1744,-604 -2913,-1916 -2913,-3553 0,-1544 1040,-3013 2622,-3981 501,-238 1048,-430 1628,-564z"/>
 </g>
 <g id="yellow">
  <metadata id="CorelCorpID_2Corel-Layer"/>
  <path id="yellowbg" class="fil2" d="M6731 42c3297,-338 5969,1395 5969,3871 0,2476 -2673,4757 -5969,5095 -3297,338 -5969,-1395 -5969,-3871 0,-2476 2673,-4757 5969,-5095z"/>
 </g>
 <g id="red1">
  <metadata id="CorelCorpID_3Corel-Layer"/>
  <path id="redbg" class="fil3" d="M7370 8251c-624,-2146 -4033,-486 -5604,-1746 -787,-632 -828,-1830 362,-3372 507,-656 1159,-1308 1778,-1767 1465,-1089 6205,-1189 7576,-421 918,514 1078,1850 874,3100 -154,946 -517,1842 -916,2299 -1046,1193 -2809,1541 -4069,1908z"/>
 </g>
 <g id="name">
  <metadata id="CorelCorpID_4Corel-Layer"/>
  <path id="nameshadow" class="fil1" d="M5359 6606c-83,-25 -161,-65 -231,-124 -119,-101 -195,-234 -236,-384 -29,-107 -40,-218 -40,-329 0,-62 4,-124 10,-186 21,-206 79,-408 156,-600 165,-411 399,-844 744,-1132 265,-221 573,-367 922,-367l22 0 2 0c116,2 220,32 308,88 51,-127 102,-253 152,-380 52,-130 104,-260 156,-390 21,-52 25,-129 19,-184 -9,-84 -42,-160 -104,-218l-210 -198 283 -57c433,-87 705,33 831,264 35,-85 85,-164 146,-233 145,-164 348,-267 569,-275 305,-11 532,124 717,317l229 -56c232,-57 499,-56 672,134 189,207 162,527 83,775 -31,99 -64,197 -100,294 63,50 129,91 200,118 -15,-140 21,-285 100,-406 106,-162 264,-283 460,-304 165,-18 332,40 444,162 188,203 152,479 2,693 -77,110 -186,201 -308,258 -22,10 -45,20 -68,29l113 57 -43 124c-165,471 -337,938 -508,1406 -26,70 -51,140 -77,210 -10,27 -22,57 -30,84 -6,30 -19,109 -6,137 37,11 133,-27 162,-41l258 -122 -46 281c-95,576 -964,817 -1299,393 -77,52 -158,99 -243,140 -115,57 -248,76 -375,75 -150,-1 -290,-42 -409,-134 -56,-44 -105,-94 -144,-152 -125,99 -269,186 -419,240 -281,101 -629,50 -809,-182 -27,20 -54,40 -83,58 -6,4 -12,8 -18,11 135,32 264,89 376,173 161,121 279,296 304,499 38,309 -145,564 -395,724l-163 104 -59 -185c-234,-729 -997,-813 -1688,-821 -772,-9 -1480,90 -1784,-248 -90,-99 -157,-213 -200,-340 -96,-286 -52,-598 25,-882 26,-95 55,-189 87,-283 -175,102 -373,167 -589,196 -30,58 -62,113 -98,171 -22,36 -43,71 -62,109 -154,313 -411,576 -739,704 -265,103 -587,115 -825,-60 -193,-141 -273,-362 -274,-595 0,-217 81,-435 212,-607 299,-394 833,-530 1309,-561 52,-80 103,-160 158,-239l700 -1013c133,-192 275,-384 431,-558 127,-141 273,-271 440,-361 135,-74 281,-109 435,-109 29,0 59,0 88,3 118,11 229,46 328,111 102,67 175,161 219,275 38,99 52,206 52,312 0,24 0,48 -1,71 -9,160 -54,322 -110,472l-730 1949c-196,523 47,1025 597,1098zm3576 -2693l81 41 -170 486c-46,132 -96,262 -144,393 -81,222 -162,444 -243,666 -26,70 -51,140 -77,210 -10,27 -22,57 -30,84 -6,29 -19,109 -6,137 21,6 71,-7 88,-12 45,-14 90,-35 132,-60 12,-62 29,-123 51,-183l759 -2055 86 -224c-36,-44 -69,-90 -100,-137 -5,-8 -11,-16 -16,-24 2,20 3,40 3,61 0,84 -20,166 -52,243 -61,144 -159,258 -293,337 -22,13 -45,25 -69,36zm-551 -69c-52,-48 -92,-108 -119,-180 -23,-62 -36,-127 -36,-193 0,-83 19,-164 51,-240 39,-94 94,-175 165,-242 -20,14 -40,28 -60,44l-140 113 -51 -95c-16,72 -38,146 -66,220l-711 1920 -39 98c-29,71 -54,145 -79,218 -25,75 -52,152 -67,229 -6,30 -23,152 13,174 14,9 36,8 58,4 2,-14 5,-28 8,-42 14,-62 31,-123 55,-181l582 -1462c80,-200 245,-332 436,-385zm-2570 2759c167,-16 334,-43 498,-68 19,-3 38,-6 56,-9 -48,-39 -90,-88 -123,-146 -7,5 -15,11 -22,16 -69,50 -142,96 -219,133 -62,30 -125,56 -191,74zm4707 -2613c-95,-13 -189,-34 -279,-62 -68,192 -137,384 -205,576 -95,268 -193,536 -284,805 -50,148 -104,300 -148,450 -2,8 -3,16 -3,23 0,33 4,82 38,99 17,9 39,11 61,10 1,-6 3,-12 4,-18 14,-62 31,-123 55,-182l577 -1446c41,-104 106,-189 185,-255zm-6851 512c234,-100 425,-295 565,-509 143,-219 272,-541 340,-794 5,-18 14,-56 20,-93 -46,37 -95,86 -116,108 -84,90 -159,193 -227,295 -150,227 -299,461 -428,701 -52,97 -103,195 -153,293zm-1458 927c-20,-1 -39,-3 -59,-3 -68,-3 -192,-5 -250,37 -23,17 -34,41 -40,68 -6,24 -4,48 10,68 24,33 70,47 109,44 72,-5 128,-56 165,-114 21,-33 43,-66 65,-99zm3975 286c197,-516 394,-1033 592,-1548l-7 0c-129,0 -233,78 -316,171 -75,84 -141,187 -198,284 -87,149 -165,306 -236,461 -54,123 -104,248 -143,376 -28,91 -53,191 -59,286l0 3c-1,9 -2,18 -2,27 0,32 4,75 20,104 0,1 1,2 2,3 5,3 22,4 28,4 52,0 106,-24 151,-49 60,-34 116,-76 168,-122z"/>
  <path id="nameoutline" class="fil4" d="M6319 6181c-89,-48 -162,-122 -210,-225 -19,14 -38,28 -56,41 -68,49 -139,93 -214,130 -129,64 -268,104 -414,103 -156,-1 -303,-43 -422,-146 -113,-97 -185,-223 -224,-365 -28,-104 -39,-212 -39,-319 0,-61 4,-121 10,-182 20,-203 78,-401 153,-590 162,-405 393,-834 733,-1117 258,-215 558,-358 898,-358l23 0c126,3 236,38 326,107 4,-10 8,-19 12,-29 53,-131 106,-263 158,-394 52,-130 104,-260 156,-390 24,-58 29,-140 22,-202 -10,-93 -47,-177 -116,-241l-158 -149 213 -43c463,-93 731,57 828,328 31,-114 91,-220 169,-308 139,-157 332,-255 542,-262 446,-16 719,297 945,631 10,-69 7,-141 -37,-176l-171 -142 216 -53c218,-53 473,-56 636,123 179,196 149,504 75,738 -34,106 -69,212 -108,317 88,75 183,131 290,160 -33,-148 0,-309 85,-440 99,-153 249,-268 433,-288 153,-17 308,37 413,151 176,190 139,448 -1,646 -73,105 -177,191 -293,245 -50,23 -101,43 -155,59 27,10 55,21 81,34l88 44 -32 93c-165,470 -337,938 -508,1406 -26,71 -52,141 -78,212 -10,27 -22,58 -31,86 -7,34 -27,154 7,177 42,28 162,-19 201,-38l194 -92 -35 212c-92,555 -955,786 -1254,349 -85,59 -174,112 -268,158 -110,54 -237,72 -359,71 -142,-1 -274,-39 -387,-126 -64,-50 -118,-109 -157,-178 -129,108 -282,203 -441,260 -276,99 -626,45 -789,-199 -36,28 -72,55 -110,79 -34,22 -69,42 -105,59 166,24 327,84 462,186 153,115 265,281 289,474 36,295 -140,536 -378,688l-123 79 -45 -139c-141,-441 -435,-659 -886,-707 -165,-17 -339,-12 -505,-4 -199,9 -398,23 -598,30 -501,17 -1129,0 -1491,-401 -86,-96 -151,-205 -192,-327 -94,-278 -49,-584 25,-861 34,-128 76,-255 122,-382 -196,136 -427,218 -683,250 -32,64 -66,123 -105,185 -23,37 -44,73 -63,112 -149,304 -400,561 -719,685 -253,99 -562,112 -790,-55 -183,-134 -258,-344 -258,-566 0,-209 78,-419 204,-585 296,-390 832,-520 1300,-548 55,-85 109,-170 167,-254l700 -1013c132,-191 273,-381 428,-554 124,-138 267,-265 430,-354 130,-71 270,-104 418,-104 28,0 56,0 85,3 112,10 217,43 311,105 96,63 164,150 205,257 37,95 49,197 49,298 0,23 0,46 -1,69 -8,156 -53,315 -108,461l-730 1949c-213,569 77,1117 704,1155 295,18 595,-34 886,-78 50,-8 101,-15 151,-22zm2372 -2640c14,6 28,12 42,19l88 44 -159 456c-46,132 -96,262 -143,393 -81,222 -162,444 -243,666 -26,71 -52,141 -78,212 -10,27 -22,58 -31,86 -7,34 -27,154 7,177 24,16 84,4 109,-3 57,-16 116,-44 168,-76 11,-66 29,-130 53,-193l759 -2054 94 -244c-40,-48 -77,-99 -111,-151 -39,-59 -84,-117 -135,-170 8,16 16,33 22,50 21,57 32,117 32,178 0,79 -19,156 -49,229 -57,137 -150,245 -278,320 -46,27 -94,49 -144,63zm-370 -46c-78,-48 -136,-119 -171,-212 -22,-57 -33,-119 -33,-180 0,-78 18,-154 48,-226 56,-137 151,-244 278,-320 85,-51 178,-82 278,-83 -188,-32 -361,44 -508,163l-105 85 -64 -119c-5,-10 -10,-20 -15,-30 -15,102 -43,209 -84,319l-711 1919 -39 97c-29,72 -54,146 -79,219 -26,76 -53,155 -68,234 -10,51 -27,178 29,213 29,18 72,14 111,3 3,-22 7,-43 12,-64 13,-60 30,-119 53,-176l582 -1462c86,-215 277,-347 488,-380zm2151 101c-138,-12 -274,-40 -402,-82 -72,203 -145,406 -217,609 -95,268 -193,536 -284,805 -51,149 -104,302 -149,453 -2,11 -4,22 -4,32 0,50 9,108 58,132 31,16 72,17 109,11 2,-15 5,-30 8,-44 13,-60 30,-119 53,-176l577 -1446c52,-130 141,-229 251,-294zm-7028 606c283,-87 511,-308 672,-556 145,-223 276,-548 344,-805 8,-30 30,-123 27,-175 -60,29 -157,124 -186,155 -86,92 -162,196 -231,300 -151,228 -300,463 -430,704 -67,125 -132,251 -197,377zm-1316 828c-42,-3 -83,-7 -123,-8 -79,-3 -206,-5 -273,44 -30,22 -46,53 -55,89 -8,35 -5,69 16,99 31,44 89,63 141,59 84,-5 150,-63 194,-131 33,-51 66,-101 99,-151zm3941 340c203,-532 406,-1064 611,-1596 -14,-7 -30,-11 -48,-11l-8 0c-140,0 -253,82 -344,183 -77,86 -144,191 -202,290 -88,150 -166,308 -238,465 -54,124 -105,251 -145,380 -29,94 -55,196 -61,295l0 2c-1,10 -2,20 -2,30 0,40 5,87 25,122 13,23 37,26 62,26 59,0 119,-25 169,-54 65,-37 125,-83 181,-132z"/>
  <path id="namew" class="fil5" d="M2686 4373c94,-144 122,-191 197,-299l700 -1013c148,-214 287,-396 419,-543 132,-147 265,-257 400,-330 113,-61 234,-90 364,-90 24,0 49,0 75,2 101,9 186,39 260,87 73,48 128,115 162,203 28,72 42,158 42,258 0,20 0,42 -1,63 -7,125 -41,267 -101,427l-730 1949c-248,662 121,1265 802,1306 534,32 1076,-153 1616,-146 763,9 1118,746 479,1154 -167,-520 -527,-736 -981,-784 -717,-76 -1976,268 -2522,-339 -441,-489 -125,-1207 207,-2045 -208,396 -575,649 -1093,696 -88,192 -130,220 -195,353 -433,881 -1554,932 -1554,114 0,-183 70,-369 181,-517 250,-329 721,-483 1274,-507zm8129 1283c-82,498 -939,689 -1103,196 -111,90 -230,166 -357,228 -79,40 -182,60 -309,60 -125,-1 -232,-35 -319,-103 -87,-67 -141,-146 -163,-235 -4,-16 -7,-33 -9,-49 -39,36 -79,70 -120,105 -111,94 -257,190 -412,245 -268,96 -627,27 -712,-275 -71,65 -143,122 -211,166 -326,210 -862,243 -934,-232 -52,47 -113,95 -181,144 -68,49 -133,89 -198,121 -123,61 -244,92 -363,92 -145,-2 -261,-42 -350,-119 -89,-76 -153,-179 -189,-310 -24,-87 -35,-183 -35,-289 0,-54 3,-111 9,-171 18,-176 66,-363 146,-560 194,-488 428,-846 701,-1073 266,-222 541,-332 826,-332l20 0c161,3 283,70 366,202 6,-15 32,-79 78,-194 46,-115 99,-246 158,-395 59,-147 111,-277 156,-389 45,-111 74,-384 -121,-567 772,-155 836,419 647,929l-711 1918 -38 96c-25,63 -52,139 -81,225 -29,87 -57,169 -72,249 -66,336 137,421 356,317 1,-40 7,-80 16,-120 12,-57 28,-109 47,-158l582 -1462c116,-294 472,-394 745,-256l-127 363c-69,198 -51,139 -143,391 -92,252 -173,474 -243,666 -70,191 -109,295 -112,310 -93,429 247,363 497,190 8,-69 25,-142 54,-220l758 -2053 118 -307c-53,-59 -102,-122 -147,-190 -265,-402 -713,-649 -1195,-260 -191,-355 125,-851 571,-867 478,-18 740,411 977,780l32 -84c24,-63 112,-319 -33,-440 562,-138 729,238 577,718 -49,156 -95,283 -133,382 166,159 358,266 608,263 -118,-147 -108,-357 -6,-514 334,-512 1012,-119 660,384 -63,89 -151,163 -249,208 -338,158 -786,136 -1144,-11 -127,359 -460,1290 -539,1523 -84,246 -133,399 -151,460 -5,19 -8,40 -8,61 0,267 229,295 383,229 2,-35 7,-71 15,-106 12,-57 28,-109 47,-158l577 -1446c116,-294 472,-394 745,-256 -176,504 -325,903 -507,1404 -70,191 -109,295 -112,310 -77,356 144,371 365,267zm-1997 -3057c101,26 170,89 208,191 17,45 25,92 25,138 0,60 -14,122 -41,185 -47,114 -124,203 -232,267 -75,44 -148,67 -220,67 -31,0 -60,-3 -90,-11 -104,-28 -174,-93 -213,-193 -17,-45 -26,-93 -26,-140 0,-59 14,-120 40,-183 47,-115 125,-203 232,-267 75,-45 148,-67 222,-67 32,0 63,5 96,14zm-2655 2835c192,-504 407,-1067 647,-1690 -45,-62 -104,-94 -180,-95l-8 0c-154,0 -296,73 -427,220 -133,149 -287,411 -459,785 -61,139 -111,270 -149,392 -37,122 -60,229 -66,321 -1,14 -2,27 -2,40 0,73 14,132 40,177 31,54 84,83 159,83 70,0 145,-23 225,-69 71,-41 145,-95 220,-164zm-2622 -1664c-104,192 -201,387 -303,580 405,-22 740,-290 970,-645 147,-226 289,-575 359,-837 109,-408 -84,-409 -349,-125 -74,79 -156,183 -243,315 -127,191 -302,467 -435,712zm-1419 1471c107,-166 104,-159 214,-321 -222,27 -688,-127 -769,207 -67,279 342,444 555,114z"/>
 </g>
 <g id="reflection">
  <metadata id="CorelCorpID_5Corel-Layer"/>
  <path id="bottomref" class="fil6" style="mask:url(#id0)" d="M7438 8904c-232,44 -468,79 -707,104 -2076,213 -3904,-396 -4973,-1494 988,122 1743,101 2348,60 1640,-113 2529,-364 3333,1330z"/>
  <path id="topref" class="fil6" style="mask:url(#id2)" d="M7627 7704c1254,-350 2683,-702 3558,-1700 439,-501 722,-1466 828,-2111 134,-824 167,-2233 -685,-2710 -389,-218 -1035,-321 -1473,-373 -726,-85 -1479,-97 -2208,-59 -951,48 -2705,246 -3486,827 -624,463 -1229,1079 -1704,1695 -347,450 -694,1010 -810,1574 -70,340 -57,697 134,997 68,106 153,198 251,276 567,455 1527,458 2219,458 1225,1 2775,-100 3377,1126z"/>
  <path id="yellocurve" class="fil7" d="M6815 132c1241,-127 2392,41 3344,433 -13,-2 -26,-4 -39,-6 -912,-336 -1990,-474 -3145,-355 -3274,336 -5929,2601 -5929,5060 0,1446 918,2637 2341,3305 -1513,-652 -2501,-1877 -2501,-3377 0,-2459 2654,-4725 5929,-5060z"/>
 </g>
</svg>
